HIERARCHY
ROOT Hips
{
	OFFSET -3.958830 18.904000 13.208200
	CHANNELS 6 Xposition Yposition Zposition Zrotation Yrotation Xrotation 
	JOINT LHipJoint
	{
		OFFSET 0.000000 0.000000 0.000000
		CHANNELS 3 Zrotation Yrotation Xrotation
		JOINT LeftUpLeg
		{
			OFFSET 1.800000 -1.400000 0.085000
			CHANNELS 3 Zrotation Yrotation Xrotation
			JOINT LeftLeg
			{
				OFFSET 2.215000 -6.000000 0.000000
				CHANNELS 3 Zrotation Yrotation Xrotation
				JOINT LeftFoot
				{
					OFFSET 2.500000 -6.900000 0.000000
					CHANNELS 3 Zrotation Yrotation Xrotation
					JOINT LeftToeBase
					{
						OFFSET 0.200000 -0.500000 1.950000
						CHANNELS 3 Zrotation Yrotation Xrotation
						End Site
						{
							OFFSET 0.000000 0.000000 0.000000
						}
					}
				}
			}
		}
	}
	JOINT RHipJoint
	{
		OFFSET 0.000000 0.000000 0.000000
		CHANNELS 3 Zrotation Yrotation Xrotation
		JOINT RightUpLeg
		{
			OFFSET -1.800000 -1.400000 0.085000
			CHANNELS 3 Zrotation Yrotation Xrotation
			JOINT RightLeg
			{
				OFFSET -2.215000 -6.000000 0.000000
				CHANNELS 3 Zrotation Yrotation Xrotation
				JOINT RightFoot
				{
					OFFSET -2.500000 -6.900000 0.000000
					CHANNELS 3 Zrotation Yrotation Xrotation
					JOINT RightToeBase
					{
						OFFSET -0.200000 -0.500000 1.950000
						CHANNELS 3 Zrotation Yrotation Xrotation
						End Site
						{
							OFFSET 0.000000 0.000000 0.000000
						}
					}
				}
			}
		}
	}
	JOINT LowerBack
	{
		OFFSET 0.000000 0.000000 0.000000
		CHANNELS 3 Zrotation Yrotation Xrotation
		JOINT Spine
		{
			OFFSET -0.087000 1.940000 -0.288900
			CHANNELS 3 Zrotation Yrotation Xrotation
			JOINT Spine1
			{
				OFFSET 0.000000 1.950000 0.060000
				CHANNELS 3 Zrotation Yrotation Xrotation
				JOINT Neck
				{
					OFFSET 0.000000 0.000000 0.000000
					CHANNELS 3 Zrotation Yrotation Xrotation
					JOINT Neck1
					{
						OFFSET 0.000000 1.600000 0.340000
						CHANNELS 3 Zrotation Yrotation Xrotation
						JOINT Head
						{
							OFFSET 0.000000 1.667000 -0.240000
							CHANNELS 3 Zrotation Yrotation Xrotation
							End Site
							{
								OFFSET 0.000000 0.000000 0.000000
							}
						}
					}
				}
				JOINT LeftShoulder
				{
					OFFSET 0.000000 0.000000 0.000000
					CHANNELS 3 Zrotation Yrotation Xrotation
					JOINT LeftArm
					{
						OFFSET 2.700000 1.550000 -0.730000
						CHANNELS 3 Zrotation Yrotation Xrotation
						JOINT LeftForeArm
						{
							OFFSET 5.450000 0.000000 0.000000
							CHANNELS 3 Zrotation Yrotation Xrotation
							JOINT LeftHand
							{
								OFFSET 3.450000 0.000000 0.000000
								CHANNELS 3 Zrotation Yrotation Xrotation
								JOINT LeftHandIndex1
								{
									OFFSET 0.750000 0.000000 0.000000
									CHANNELS 3 Zrotation Yrotation Xrotation
									End Site
									{
										OFFSET 0.000000 0.000000 0.000000
									}
								}
							}
						}
					}
				}
				JOINT RightShoulder
				{
					OFFSET 0.000000 0.000000 0.000000
					CHANNELS 3 Zrotation Yrotation Xrotation
					JOINT RightArm
					{
						OFFSET -2.700000 1.550000 -0.730000
						CHANNELS 3 Zrotation Yrotation Xrotation
						JOINT RightForeArm
						{
							OFFSET -5.450000 0.000000 0.000000
							CHANNELS 3 Zrotation Yrotation Xrotation
							JOINT RightHand
							{
								OFFSET -3.450000 0.000000 0.000000
								CHANNELS 3 Zrotation Yrotation Xrotation
								JOINT RightHandIndex1
								{
									OFFSET -0.750000 0.000000 0.000000
									CHANNELS 3 Zrotation Yrotation Xrotation
									End Site
									{
										OFFSET 0.000000 0.000000 0.000000
									}
								}
							}
						}
					}
				}
			}
		}
	}
}
MOTION
Frames: 9
Frame Time: 0.016667
0.112890 16.984090 -3.590280 4.438741 6.086919 0.841746 -15.309538 10.944183 6.255291 -1.911077 -12.214591 -52.716780 -12.435792 2.755546 3.011701 -1.114515 2.678870 3.859142 0.295710 0.082370 -0.026390 18.392323 -10.631394 1.696457 -3.708297 1.369859 -12.167578 -2.180624 -4.049315 26.779108 -0.144085 -4.200510 3.092571 0.334020 0.741360 0.059420 -3.638304 -0.710821 -8.482806 5.067845 3.844319 36.001490 -1.635546 7.360578 11.320099 -3.890837 -5.776206 -8.354971 -11.935500 -9.394925 29.754086 2.553820 -14.855610 -13.290720 17.293646 -23.981077 -3.947970 45.458288 -30.316478 -16.437267 41.755353 -29.002199 -9.488495 -4.150039 2.688900 0.410450 0.298480 -0.279580 0.343750 -10.471164 33.145980 6.645535 -30.712704 18.248495 -18.319476 -47.761337 13.209911 -8.058327 2.339763 -1.589412 -0.494010 0.754460 0.155070 0.003830 
0.064510 16.955160 -3.577210 4.584979 7.714825 0.005469 -15.283352 10.686020 6.377829 -0.526379 -12.935795 -54.012099 -13.865371 3.974374 9.310242 -1.086506 3.308937 3.635136 0.297250 0.092070 -0.104900 18.463672 -10.648564 1.666405 -3.812945 1.104657 -10.682241 -1.171372 -4.495750 26.636068 -0.132235 -4.445934 3.019111 0.394650 0.858630 0.065410 -3.796058 -0.368348 -8.468889 5.528968 3.415764 37.197295 -1.873467 7.092962 12.588687 -4.682732 -5.029612 -7.436410 -9.658046 -9.814272 27.290074 4.626420 -15.632720 -12.486840 14.207431 -24.361081 -3.789037 44.879911 -30.145688 -16.787388 52.079648 -33.980885 -14.396819 -4.174515 2.655501 0.339130 0.373230 -0.378720 0.375520 -6.017243 32.379942 6.688251 -29.950768 18.371995 -19.311517 -59.730058 17.102203 -12.034403 2.202162 -1.654222 -0.525380 0.789610 0.195600 0.035110 
0.038930 16.978780 -3.556190 4.666659 8.428497 -0.114927 -15.247782 10.454556 6.480824 0.094981 -13.613248 -54.911556 -14.404424 5.060250 14.533535 -1.004416 3.831001 3.408453 0.384690 0.225200 -0.067030 18.536733 -10.691382 1.646521 -3.436031 1.170423 -11.090317 -1.638708 -4.459055 27.892432 -0.185200 -4.584534 2.948874 0.472660 0.820620 0.085230 -3.963094 0.037044 -8.479140 6.705502 3.013508 37.470402 -3.133069 7.006885 13.966272 -4.484928 -4.789045 -7.173008 -8.754243 -9.977146 26.263483 4.251970 -15.197900 -13.450190 11.393220 -24.260442 -3.531695 41.224011 -31.327694 -16.330617 64.415097 -38.609916 -21.599026 -4.075842 2.559001 0.308490 0.375480 -0.348730 0.400260 -3.740046 31.749808 6.537512 -24.517870 18.691802 -19.318927 -75.820312 21.211583 -19.362137 2.098753 -1.736936 -0.480290 0.768500 0.145430 0.044060 
0.012400 17.025760 -3.533270 4.827344 9.673459 0.380402 -15.241398 10.263995 6.635578 1.010790 -14.417525 -56.030247 -15.551489 6.401266 19.598331 -0.876746 4.645951 3.117548 0.390250 0.205150 -0.026940 18.589259 -10.620113 1.623767 -2.950180 1.435473 -12.346092 -2.068370 -4.437025 29.553939 -0.192127 -4.670629 2.916519 0.467350 0.820350 0.067490 -4.060474 0.152579 -8.543964 7.442807 2.386154 36.693284 -4.201007 6.415347 15.269247 -4.456852 -5.595689 -7.128291 -10.407180 -9.577931 26.939284 4.244910 -15.377240 -13.255260 8.629660 -23.869934 -2.865627 34.479282 -34.776425 -14.792104 78.466129 -41.431715 -31.232473 -4.015729 2.351666 0.312980 0.371040 -0.361200 0.394750 -1.217120 31.321130 6.352406 -18.945501 21.389478 -18.312256 -89.888580 24.471442 -28.031645 1.970465 -1.693169 -0.498540 0.782200 0.132520 0.027290 
0.005100 17.119660 -3.481090 5.098986 10.606504 0.928775 -15.222515 10.203464 6.681263 0.858018 -15.070284 -55.827851 -15.563882 7.450314 23.993553 -0.742369 5.267843 2.871279 0.385060 0.180710 -0.010890 18.626454 -10.580239 1.635843 -2.591415 1.630271 -13.582742 -2.364974 -4.465591 30.728617 -0.219781 -4.701804 2.881839 0.427860 0.768240 0.082450 -4.154746 0.176190 -8.590802 8.309427 1.821037 35.823816 -5.734171 5.958484 16.169018 -4.242527 -6.729482 -7.393050 -13.233837 -9.005486 28.635507 4.455070 -15.666590 -13.845520 5.671866 -23.561894 -2.358515 25.596353 -40.188310 -11.929010 89.467708 -44.900997 -41.818336 -3.944139 2.144399 0.346820 0.331990 -0.327200 0.376720 1.058034 31.037388 6.784269 -10.864703 23.612706 -15.826594 -104.325927 28.613075 -41.828419 1.829595 -1.606734 -0.475200 0.738900 0.129120 0.014730 
-0.022370 17.210020 -3.425940 6.118209 11.951826 1.950521 -15.335514 10.392926 6.774693 0.048535 -16.070017 -55.368654 -15.108673 8.243744 27.867716 -0.583477 5.725085 2.682207 0.390550 0.175190 0.033770 18.525887 -10.336067 1.650762 -1.976991 1.960383 -15.957835 -3.389981 -4.316020 33.431214 -0.284768 -4.771166 2.843627 0.367280 0.669120 0.082990 -3.859475 -0.563274 -8.651313 6.012778 1.883696 34.975353 -5.069181 5.309688 16.177368 -3.928012 -7.808756 -8.094848 -16.582222 -7.667299 31.092894 4.818920 -15.262830 -15.630940 3.649228 -23.037135 -1.823251 11.731334 -43.302220 -5.724252 99.532223 -49.829777 -56.383945 -3.837801 1.882247 0.412540 0.253040 -0.248210 0.356170 2.439385 31.222525 7.874165 -0.527021 26.438991 -12.063292 -116.037301 33.020502 -60.202671 1.735683 -1.446693 -0.433670 0.691830 0.096990 -0.003640 
-0.052320 17.315250 -3.379280 6.678422 11.868236 2.247247 -15.408614 10.675996 6.670956 -0.814761 -15.842311 -53.905101 -13.444246 8.782954 31.343361 -0.377068 6.031832 2.536598 0.392920 0.184990 0.042660 18.430162 -10.153230 1.812544 -1.124388 2.824786 -18.966914 -4.785984 -3.941064 37.500140 -0.398755 -5.055282 2.725090 0.285690 0.559430 0.106980 -3.619917 -1.134698 -8.700882 3.856685 2.277504 35.957446 -4.533871 5.473862 15.308358 -3.389385 -9.079988 -9.379970 -20.100485 -6.067036 32.886715 6.396010 -15.107580 -17.294850 0.383209 -23.069348 -0.986852 -1.391275 -43.158655 0.696884 109.778999 -57.801390 -78.927901 -3.775703 1.737375 0.436930 0.162650 -0.159200 0.344540 4.845318 32.380554 9.503628 8.205654 27.301339 -9.054269 -125.328988 38.187323 -81.825320 1.800272 -1.351718 -0.334350 0.592420 0.054790 0.016900 
-0.064310 17.406400 -3.342480 6.319859 11.623687 2.749050 -15.438768 10.838625 6.500376 -1.809755 -15.273662 -52.864104 -9.946946 8.561517 34.578269 -0.310647 6.184246 2.469785 0.358830 0.104130 0.060440 18.392090 -9.876644 2.191328 0.411382 4.420600 -23.095692 -5.374296 -3.922990 42.811952 -0.553727 -5.629445 2.509277 0.195390 0.481270 0.104240 -3.521441 -1.509907 -8.852928 3.304879 2.108651 36.954682 -4.609232 5.617894 13.291395 -2.343989 -10.061255 -11.340872 -23.721839 -3.678111 35.537175 6.383170 -14.589540 -16.664300 -4.422831 -23.813254 0.164642 -14.212444 -41.509687 4.484691 118.098810 -70.305054 -108.503566 -3.831483 2.229692 0.513880 0.090410 -0.111790 0.319630 8.233636 33.592838 11.646724 18.024067 26.175509 -7.259484 -132.677318 47.147200 -108.834157 1.927344 -1.332911 -0.323790 0.529290 0.043510 -0.010510 
-0.084130 17.477280 -3.296100 4.774311 11.831246 2.237844 -15.390494 10.972629 6.034388 -1.880488 -13.547139 -50.370592 -6.867277 8.120090 36.526630 -0.290752 6.162826 2.417249 0.473810 0.208040 0.203040 18.422470 -9.648780 2.750363 2.381114 6.644030 -26.240514 -4.231363 -4.879326 49.270643 -0.883257 -6.557272 2.157945 0.199080 0.304400 0.123140 -3.630166 -1.519495 -8.953046 4.832680 1.364116 38.303355 -5.136230 5.823761 11.724315 -0.726652 -10.368769 -12.467761 -25.979934 -1.750206 39.213398 5.626690 -13.867840 -19.586210 -9.364793 -23.667003 0.755890 -26.725741 -39.498195 3.430425 91.287251 -89.002415 -100.945578 -4.248584 -0.105586 0.617540 -0.039890 0.032420 0.304300 10.662672 33.833053 12.682945 27.444225 24.628088 -8.318816 -139.799233 59.367711 -137.221434 1.998377 -1.527181 -0.247770 0.470720 -0.041890 -0.043540 
